<svg data-name="Layer 2" xmlns="http://www.w3.org/2000/svg" viewBox="0 0 267 177">
    <g data-name="Layer 1">
        <path d="M258.66 0H85.18c-4.6 0-8.34 3.74-8.34 8.36v141.22c0 4.62 3.73 8.36 8.34 8.36h173.48c4.6 0 8.34-3.74 8.34-8.36V8.36c0-4.62-3.73-8.36-8.34-8.36Z" fill="#edeef6"/>
        <path d="M171.92 119.18c22.16 0 40.12-18.01 40.12-40.22s-17.96-40.22-40.12-40.22-40.12 18.01-40.12 40.22 17.96 40.22 40.12 40.22Z" fill="#ec613d"/>
        <path d="M192.73 71.84v14.25c0 .74-.3 1.44-.82 1.96s-1.22.81-1.95.81h-7.16a1.007 1.007 0 0 0-1 1.01v7.18c0 .74-.3 1.44-.81 1.96s-1.22.81-1.96.81h-14.21c-.73 0-1.44-.29-1.95-.81-.52-.52-.81-1.22-.81-1.96v-7.18a1 1 0 0 0-.3-.71 1 1 0 0 0-.71-.3h-7.16c-.73 0-1.44-.29-1.95-.81-.52-.52-.81-1.22-.81-1.96V71.84c0-.74.29-1.44.81-1.96s1.22-.81 1.95-.82h7.16c.27 0 .52-.11.71-.29.19-.19.29-.44.3-.71v-7.18c0-.74.29-1.44.81-1.96s1.22-.81 1.95-.82h14.21a2.779 2.779 0 0 1 2.77 2.78v7.18a.99.99 0 0 0 1 1h7.15c.36 0 .73.07 1.06.21.34.14.64.34.9.6a2.783 2.783 0 0 1 .81 1.96Z" fill="#f9fafd"/>
        <path d="M62.01 42.43H43.33c-1.6 0-3.18.39-4.6 1.14a9.93 9.93 0 0 0-3.54 3.15L1.75 95.27A9.94 9.94 0 0 0 0 100.9v46.41c0 2.63 1.04 5.15 2.9 7.02a9.893 9.893 0 0 0 7 2.91h52.11a9.91 9.91 0 0 0 7-2.91 9.913 9.913 0 0 0 2.9-7.02V52.35c0-2.63-1.04-5.15-2.9-7.01a9.893 9.893 0 0 0-7-2.91Z" fill="#edeef6"/>
        <path d="M50.7 33.73h7.35c1.07 0 2.1.43 2.86 1.19.76.76 1.18 1.79 1.18 2.86v1.42c0 .7-.28 1.37-.77 1.87s-1.16.77-1.86.77H49.3c-.35 0-.69-.07-1.01-.2-.32-.13-.61-.33-.86-.57s-.44-.54-.57-.86c-.13-.32-.2-.67-.2-1.01v-1.42c0-1.07.43-2.11 1.18-2.86a4.05 4.05 0 0 1 2.86-1.19Z" fill="#ec613d"/>
        <path d="M44.06 59.98 19.41 89.13c-.66.77-1.03 1.75-1.04 2.76v3.13c0 2.58 2.36 4.63 5.27 4.63h30.61c2.91 0 5.27-2.07 5.27-4.63V62.74c0-2.56-2.36-4.63-5.27-4.63h-5.96a5.6 5.6 0 0 0-2.32.47c-.73.32-1.38.8-1.91 1.4Z" fill="#a9aed6"/>
        <path d="M72.01 124.7H0v5.52h72.01v-5.52Z" fill="#ec613d"/>
        <path d="M44.27 177c8.42 0 15.25-6.84 15.25-15.29s-6.83-15.28-15.25-15.28-15.25 6.84-15.25 15.28S35.85 177 44.27 177Z" fill="#6f6e6e"/>
        <path data-name="wheel" d="M206.51 176.79c8.42 0 15.25-6.84 15.25-15.29s-6.83-15.28-15.25-15.28-15.25 6.84-15.25 15.28 6.83 15.29 15.25 15.29Z" fill="#6f6e6e"/>
    </g>
</svg>
