<svg width="61" height="60" viewBox="0 0 61 60" fill="none" xmlns="http://www.w3.org/2000/svg">
<mask id="mask0_1849_12715" style="mask-type:alpha" maskUnits="userSpaceOnUse" x="0" y="0" width="61" height="60">
<rect x="0.5" width="60" height="60" fill="#D9D9D9"/>
</mask>
<g mask="url(#mask0_1849_12715)">
<path d="M7.28383 25.1442C7.10112 24.4871 6.9665 23.8383 6.87996 23.1976C6.79342 22.5569 6.75014 21.8949 6.75014 21.2115C6.75014 17.6634 7.94646 14.6995 10.3391 12.3197C12.7317 9.9399 15.702 8.75 19.2501 8.75C21.3911 8.75 23.4432 9.26444 25.4063 10.2933C27.3695 11.3221 29.0674 12.7821 30.5001 14.6731C31.9328 12.7661 33.6203 11.3021 35.5626 10.2813C37.5049 9.26044 39.5674 8.75 41.7501 8.75C45.2661 8.75 48.2204 9.92788 50.613 12.2836C53.0056 14.6394 54.2179 17.5753 54.25 21.0913V21.1682C53.6507 20.6682 53.0128 20.2299 52.3366 19.8533C51.6603 19.4767 50.9376 19.1618 50.1684 18.9086C49.6972 17.024 48.6876 15.4847 47.1395 14.2908C45.5914 13.0969 43.795 12.4999 41.7501 12.4999C39.8623 12.4999 38.089 13.0472 36.4303 14.1418C34.7717 15.2363 33.202 16.8846 31.7212 19.0865H29.279C27.8398 16.9423 26.2701 15.3084 24.5698 14.1851C22.8695 13.0616 21.0963 12.4999 19.2501 12.4999C16.7917 12.4999 14.7188 13.3437 13.0313 15.0312C11.3438 16.7187 10.5001 18.7788 10.5001 21.2115C10.5001 21.901 10.5626 22.5581 10.6876 23.1829C10.8126 23.8077 11.0081 24.4615 11.2741 25.1442H7.28383ZM25.0868 46.2884C23.7214 45.0384 22.4714 43.8878 21.3368 42.8365C20.2021 41.7852 19.146 40.7916 18.1685 39.8557H23.6539C24.667 40.757 25.7352 41.726 26.8585 42.7625C27.9817 43.799 29.1956 44.907 30.5001 46.0865C31.3206 45.375 32.0851 44.6963 32.7934 44.0504C33.5017 43.4046 34.1876 42.7707 34.8511 42.1489C35.2898 42.6177 35.7521 43.0474 36.2378 43.438C36.7235 43.8286 37.2372 44.1922 37.7789 44.5287C37.4744 44.8172 37.1539 45.1177 36.8173 45.4302C36.4807 45.7427 36.1282 46.0673 35.7595 46.4039L33.0673 48.8268C32.713 49.1473 32.3103 49.3877 31.8593 49.5479C31.4083 49.7082 30.9571 49.7883 30.5058 49.7883C30.0544 49.7883 29.595 49.7082 29.1275 49.5479C28.6601 49.3877 28.249 49.1473 27.8944 48.8268L25.0868 46.2884ZM43.6251 32.6923V24.9999C43.6251 24.4687 43.8049 24.0234 44.1644 23.664C44.5239 23.3047 44.9694 23.125 45.5009 23.125C46.0324 23.125 46.4776 23.3047 46.8366 23.664C47.1955 24.0234 47.375 24.4687 47.375 24.9999V32.6923C47.375 33.2235 47.1953 33.6688 46.8358 34.0282C46.4762 34.3875 46.0307 34.5672 45.4993 34.5672C44.9678 34.5672 44.5225 34.3875 44.1636 34.0282C43.8046 33.6688 43.6251 33.2235 43.6251 32.6923ZM5.98089 34.3749C5.44964 34.3749 5.00433 34.1951 4.64496 33.8356C4.28562 33.4761 4.10596 33.0306 4.10596 32.4991C4.10596 31.9676 4.28562 31.5224 4.64496 31.1634C5.00433 30.8045 5.44964 30.625 5.98089 30.625H14.9425L19.1491 24.4039C19.3783 24.0628 19.6551 23.8165 19.9796 23.6649C20.3042 23.5133 20.6508 23.4375 21.0193 23.4375C21.3879 23.4375 21.7333 23.5192 22.0554 23.6827C22.3775 23.8461 22.6556 24.0994 22.8895 24.4423L27.0193 30.625H31.303C31.2517 30.9455 31.2093 31.2535 31.1756 31.5491C31.142 31.8447 31.1251 32.1636 31.1251 32.5058C31.1251 32.848 31.142 33.165 31.1756 33.4566C31.2093 33.7483 31.2517 34.0544 31.303 34.3749H26.1973C25.8126 34.3749 25.4569 34.2827 25.13 34.0984C24.803 33.9142 24.5354 33.6714 24.3271 33.3701L20.9809 28.3701L17.6347 33.3701C17.4264 33.6714 17.1588 33.9142 16.8318 34.0984C16.5049 34.2827 16.1491 34.3749 15.7645 34.3749H5.98089ZM45.5009 41.923C44.8882 41.923 44.3743 41.7158 43.9592 41.3013C43.5442 40.8868 43.3367 40.3731 43.3367 39.7604C43.3367 39.1476 43.5439 38.6337 43.9584 38.2187C44.3729 37.8036 44.8865 37.5961 45.4993 37.5961C46.112 37.5961 46.6259 37.8034 47.041 38.2179C47.456 38.6323 47.6635 39.1459 47.6635 39.7587C47.6635 40.3714 47.4563 40.8853 47.0418 41.3004C46.6273 41.7155 46.1136 41.923 45.5009 41.923Z" fill="#E9461E"/>
</g>
</svg>
