<svg width="21" height="18" viewBox="0 0 21 18" fill="none" xmlns="http://www.w3.org/2000/svg">
<path d="M16.4499 10.7056L19.448 7.69793C19.5967 7.54922 19.7708 7.47486 19.9701 7.47486C20.1695 7.47486 20.3467 7.54922 20.5018 7.69793C20.657 7.84663 20.7329 8.02483 20.7297 8.23253C20.7265 8.44022 20.6505 8.61842 20.5018 8.76713L17.0826 12.1864C16.9018 12.3671 16.6868 12.4575 16.4374 12.4575C16.1881 12.4575 15.973 12.3671 15.7923 12.1864L14.498 10.8767C14.3493 10.728 14.2733 10.554 14.2701 10.3546C14.2669 10.1553 14.3429 9.97805 14.498 9.82293C14.6467 9.67422 14.8224 9.60242 15.0249 9.60753C15.2275 9.61267 15.4031 9.68447 15.5518 9.82293L16.4499 10.7056ZM7.33463 15.3806C5.97434 14.1434 4.82658 13.0614 3.89133 12.1344C2.95606 11.2075 2.19964 10.361 1.62208 9.59501C1.04451 8.82898 0.629758 8.10878 0.377825 7.43443C0.125942 6.76007 0 6.0652 0 5.34983C0 3.9306 0.478517 2.74503 1.43555 1.79311C2.39258 0.841192 3.58071 0.365234 4.99993 0.365234C5.87301 0.365234 6.69801 0.569409 7.47493 0.977759C8.25184 1.38609 8.92684 1.97167 9.49993 2.73448C10.073 1.97167 10.748 1.38609 11.5249 0.977759C12.3018 0.569409 13.1268 0.365234 13.9999 0.365234C15.2538 0.365234 16.3118 0.734792 17.174 1.47391C18.0361 2.21301 18.5954 3.13832 18.8518 4.24986H17.2749C17.0454 3.50626 16.6262 2.92292 16.0173 2.49983C15.4083 2.07675 14.7358 1.86521 13.9999 1.86521C13.1692 1.86521 12.4342 2.09438 11.7951 2.55271C11.156 3.01104 10.5538 3.66008 9.98838 4.49983H9.01148C8.44993 3.65367 7.83838 3.00302 7.17685 2.54791C6.51532 2.09277 5.78968 1.86521 4.99993 1.86521C4.03711 1.86521 3.21307 2.19598 2.5278 2.85751C1.84255 3.51906 1.49993 4.34983 1.49993 5.34983C1.49993 5.90623 1.61659 6.47097 1.84993 7.04406C2.08326 7.61714 2.49993 8.27772 3.09993 9.02578C3.69992 9.77387 4.51659 10.6502 5.54993 11.6546C6.58326 12.6591 7.89993 13.8742 9.49993 15.2998C9.97173 14.878 10.4768 14.43 11.0153 13.9556C11.5538 13.4812 12.0076 13.0678 12.3769 12.7152L13.446 13.7844C13.0666 14.137 12.6143 14.5447 12.0893 15.0075C11.5643 15.4703 11.0691 15.9126 10.6038 16.3344L10.1076 16.7844C9.9435 16.9485 9.74094 17.0306 9.49993 17.0306C9.25891 17.0306 9.05635 16.9485 8.89225 16.7844L7.33463 15.3806Z" fill="#F8F9FC"/>
</svg>
