<svg width="21" height="17" viewBox="0 0 21 17" fill="none" xmlns="http://www.w3.org/2000/svg">
<path d="M14.1153 10.7498C13.9028 10.7498 13.7247 10.6779 13.5809 10.5341C13.4372 10.3903 13.3653 10.2121 13.3653 9.99951C13.3653 9.78691 13.4372 9.60882 13.5809 9.46523C13.7247 9.32165 13.9028 9.24986 14.1153 9.24986H20.1153C20.3278 9.24986 20.5059 9.32176 20.6497 9.46556C20.7934 9.60938 20.8653 9.78758 20.8653 10.0002C20.8653 10.2128 20.7934 10.3909 20.6497 10.5344C20.5059 10.678 20.3278 10.7498 20.1153 10.7498H14.1153ZM0 5.34983C0 3.9306 0.478517 2.74503 1.43555 1.79311C2.3926 0.841192 3.58073 0.365234 4.99995 0.365234C5.87303 0.365234 6.69803 0.569409 7.47495 0.977759C8.25187 1.38609 8.92687 1.97167 9.49995 2.73448C10.073 1.97167 10.748 1.38609 11.525 0.977759C12.3019 0.569409 13.1269 0.365234 14 0.365234C15.3628 0.365234 16.5435 0.833825 17.5422 1.77101C18.5409 2.70818 19.0403 3.87419 19.0403 5.26906C19.0403 5.43316 19.0291 5.59951 19.0067 5.76811C18.9842 5.93671 18.9486 6.10627 18.8999 6.27678C18.8666 6.56138 18.7605 6.75881 18.5816 6.86906C18.4028 6.97932 18.2179 7.02196 18.0268 6.99696C17.8358 6.97196 17.6692 6.88718 17.5268 6.74263C17.3846 6.59808 17.3301 6.40754 17.3634 6.17101C17.4057 6.00991 17.4375 5.85553 17.4586 5.70786C17.4798 5.56019 17.4903 5.41392 17.4903 5.26906C17.4903 4.23187 17.1294 3.40527 16.4076 2.78923C15.6858 2.17322 14.8833 1.86521 14 1.86521C13.2012 1.86521 12.4772 2.0979 11.8278 2.56328C11.1785 3.02867 10.6173 3.59726 10.1442 4.26906C10.0723 4.38531 9.97897 4.46886 9.86405 4.51971C9.74913 4.57056 9.62703 4.59598 9.49773 4.59598C9.36844 4.59598 9.2469 4.56693 9.1331 4.50881C9.0193 4.45069 8.92684 4.37077 8.85573 4.26906C8.38264 3.59726 7.82143 3.02867 7.17208 2.56328C6.52271 2.0979 5.79867 1.86521 4.99995 1.86521C4.03713 1.86521 3.21309 2.19528 2.52783 2.85543C1.84258 3.5156 1.49995 4.34707 1.49995 5.34983C1.49995 5.9054 1.61662 6.46938 1.84995 7.04178C2.08328 7.61418 2.49995 8.27497 3.09995 9.02413C3.69995 9.77332 4.51662 10.6502 5.54995 11.6546C6.58328 12.6591 7.89995 13.8742 9.49995 15.2998L11.8499 13.1864C12.0051 13.0479 12.1826 12.985 12.3825 12.9978C12.5823 13.0105 12.751 13.0868 12.8884 13.2267C13.0435 13.3819 13.1169 13.5668 13.1086 13.7815C13.1002 13.9963 13.0134 14.1729 12.848 14.3113L10.5268 16.4113C10.382 16.546 10.2193 16.6437 10.0389 16.7046C9.85844 16.7655 9.678 16.796 9.49755 16.796C9.3171 16.796 9.13746 16.7655 8.95862 16.7046C8.77977 16.6437 8.61792 16.5408 8.47305 16.396C7.38968 15.4152 6.33935 14.4613 5.32205 13.5344C4.30473 12.6075 3.40217 11.6917 2.61437 10.7873C1.82656 9.88278 1.19387 8.98054 0.716325 8.08056C0.238742 7.18058 0 6.27033 0 5.34983Z" fill="#4C4C4C"/>
</svg>
